<?xml version="1.0" encoding="UTF-8" standalone="no"?>
<!-- Created with Inkscape (http://www.inkscape.org/) -->

<svg
   version="1.1"
   id="svg2"
   width="1333.3333"
   height="1333.3333"
   viewBox="0 0 1333.3333 1333.3333"
   sodipodi:docname="64183.eps"
   xmlns:inkscape="http://www.inkscape.org/namespaces/inkscape"
   xmlns:sodipodi="http://sodipodi.sourceforge.net/DTD/sodipodi-0.dtd"
   xmlns="http://www.w3.org/2000/svg"
   xmlns:svg="http://www.w3.org/2000/svg">
  <defs
     id="defs6" />
  <sodipodi:namedview
     id="namedview4"
     pagecolor="#ffffff"
     bordercolor="#000000"
     borderopacity="0.25"
     inkscape:showpageshadow="2"
     inkscape:pageopacity="0.0"
     inkscape:pagecheckerboard="0"
     inkscape:deskcolor="#d1d1d1" />
  <g
     id="g8"
     inkscape:groupmode="layer"
     inkscape:label="ink_ext_XXXXXX"
     transform="matrix(1.3333333,0,0,-1.3333333,0,1333.3333)">
    <g
       id="g10"
       transform="scale(0.1)">
      <path
         d="M 0,0 H 10000 V 10000 H 0 Z"
         style="fill:#f4f4f4;fill-opacity:1;fill-rule:nonzero;stroke:none"
         id="path12" />
      <path
         d="M 2795.94,4155.68 H 770 l 488.91,674.99 -488.91,675 h 1033.06 v -689.01 l 942.13,-618.77 v 595.09 h 50.75 v -637.3"
         style="fill:#2f4c86;fill-opacity:1;fill-rule:nonzero;stroke:none"
         id="path14" />
      <path
         d="M 7204.06,4155.68 H 9230 l -488.91,674.99 488.91,675 H 8196.93 v -689.01 l -942.12,-618.77 v 595.09 h -50.75 v -637.3"
         style="fill:#2f4c86;fill-opacity:1;fill-rule:nonzero;stroke:none"
         id="path16" />
      <path
         d="m 7524.5,5552.73 c 0,-329.64 -40.03,-651.71 -116.09,-960.43 C 7106.81,3368.52 6235.79,2349.81 5022.23,1868.49 l -22.24,-8.9 -22.24,8.9 c -1213.54,481.32 -2084.1,1500.03 -2385.72,2723.81 -76.07,308.72 -116.1,630.79 -116.1,960.43 v 468.42 c 0,581.86 312.72,1124.13 816.74,1415.07 l 890.58,514.24 c 247.77,142.8 530.26,218.42 816.74,218.42 286.5,0 568.97,-75.62 816.76,-218.42 l 890.56,-514.24 c 504.02,-290.94 817.19,-833.21 817.19,-1415.07 v -468.42 m -597.41,2263.38 -890.59,514.25 c -320.74,185.06 -678.4,277.59 -1036.51,277.59 -357.66,0 -715.76,-92.53 -1036.05,-277.59 L 3072.91,7816.11 C 2431.88,7446 2036.86,6761.83 2036.86,6021.15 v -468.42 c 0,-327.86 36.46,-649.93 105.86,-960.43 327.87,-1468 1393.72,-2694.01 2857.27,-3200.25 887.05,306.94 1627.71,877.69 2146.86,1606.8 337.19,473.76 580.96,1014.7 710.41,1593.45 69.39,310.5 105.89,632.57 105.89,960.43 v 468.42 c 0,740.68 -395.06,1424.85 -1036.06,1794.96"
         style="fill:#81bfe6;fill-opacity:1;fill-rule:nonzero;stroke:none"
         id="path18" />
      <path
         d="m 7403.52,6021.15 v -468.42 c 0,-447.97 -76.07,-880.81 -218.43,-1285.17 C 6826.54,3247.52 6046.28,2412.09 4999.99,1989.48 3955.94,2411.2 3176.57,3244.4 2817.12,4261.33 c -143.68,406.14 -220.64,841.21 -220.64,1291.4 v 468.42 c 0,538.71 290.04,1040.95 756.68,1310.08 l 890.59,514.24 c 229.54,132.57 491.11,202.86 756.24,202.86 265.13,0 526.72,-70.29 756.24,-202.86 l 891.05,-514.24 c 466.2,-269.13 756.24,-771.37 756.24,-1310.08"
         style="fill:#81bfe6;fill-opacity:1;fill-rule:nonzero;stroke:none"
         id="path20" />
      <path
         d="M 7403.45,5552.81 C 7403.45,3975.19 6460.82,2579.2 5000,1989.62 3539.18,2579.2 2596.55,3975.19 2596.55,5552.81 v 468.46 c 0,538.73 289.85,1040.73 756.4,1310.08 l 890.68,514.24 c 229.62,132.58 491.15,202.66 756.37,202.66 265.21,0 526.78,-70.08 756.4,-202.66 l 890.68,-514.24 C 7113.63,7062 7403.45,6560.03 7403.45,6021.27 V 5552.81 M 6707.49,7436 5816.8,7950.24 c -247.96,143.14 -530.4,218.82 -816.8,218.82 -286.4,0 -568.81,-75.68 -816.77,-218.82 L 3292.54,7436 c -503.83,-290.88 -816.8,-832.97 -816.8,-1414.73 v -468.46 c 0,-1635.52 982.09,-3081.72 2501.99,-3684.41 l 22.27,-8.82 22.27,8.82 c 1519.9,602.69 2501.99,2048.89 2501.99,3684.41 v 468.46 c 0,581.76 -312.97,1123.85 -816.77,1414.73"
         style="fill:#ffffff;fill-opacity:1;fill-rule:nonzero;stroke:none"
         id="path22" />
      <path
         d="m 7408.41,4592.3 h -0.21 c 76.15,308.88 116.06,630.89 116.06,960.51 v 389.6 h 0.24 v -389.68 c 0,-329.64 -40.03,-651.71 -116.09,-960.43 v 0 m -124.83,0 h -0.1 c 25.03,98.01 46.26,197.38 63.6,297.96 -17.31,-100.57 -38.52,-199.97 -63.5,-297.96 m -4567.01,0 h -0.15 c -37,145.14 -65.74,293.42 -85.78,444.02 20.09,-150.64 48.87,-298.83 85.93,-444.02"
         style="fill:#929292;fill-opacity:1;fill-rule:nonzero;stroke:none"
         id="path24" />
      <path
         d="m 7857.26,4592.3 h -448.85 v 0 c 76.06,308.72 116.09,630.79 116.09,960.43 v 389.68 h 438.65 v -389.68 c 0,-327.86 -36.5,-649.93 -105.89,-960.43 v 0 m -5265.46,0 h -449.08 v 0 c -69.4,310.5 -105.86,632.57 -105.86,960.43 v 389.68 h 438.88 v -389.6 c 0,-329.62 39.91,-651.63 116.06,-960.51"
         style="fill:#4d738a;fill-opacity:1;fill-rule:nonzero;stroke:none"
         id="path26" />
      <path
         d="M 7283.48,4592.3 H 2716.57 c -37.06,145.19 -65.84,293.38 -85.93,444.02 -22.53,169.37 -34.09,341.82 -34.09,516.49 v 389.6 h 4806.9 v -389.6 c 0,-225.13 -19.21,-446.64 -56.37,-662.55 -17.34,-100.58 -38.57,-199.95 -63.6,-297.96"
         style="fill:#4d738a;fill-opacity:1;fill-rule:nonzero;stroke:none"
         id="path28" />
      <path
         d="m 7408.2,4592.3 h -124.62 c 24.98,97.99 46.19,197.39 63.5,297.96 37.16,215.91 56.37,437.42 56.37,662.55 v 389.6 h 120.81 v -389.6 c 0,-329.62 -39.91,-651.63 -116.06,-960.51 m -4691.78,0 H 2591.8 c -76.15,308.88 -116.06,630.89 -116.06,960.51 v 389.6 h 120.81 v -389.6 c 0,-174.67 11.56,-347.12 34.09,-516.49 20.04,-150.6 48.78,-298.88 85.78,-444.02"
         style="fill:#999999;fill-opacity:1;fill-rule:nonzero;stroke:none"
         id="path30" />
      <path
         d="M 1838,6209.3 H 8162 V 4859.31 H 1838 V 6209.3"
         style="fill:#2f4c86;fill-opacity:1;fill-rule:nonzero;stroke:none"
         id="path32" />
      <path
         d="m 4568.2,7445.66 c 4.48,4.48 88.81,-72.58 93.29,-77.06 l 27.59,-27.59 v 72.14 l -150.55,62.19 62.19,-150.55 h 72.14 l -27.59,27.58 c -4.48,4.49 -81.55,88.82 -77.07,93.29"
         style="fill:#ffffff;fill-opacity:1;fill-rule:nonzero;stroke:none"
         id="path34" />
      <path
         d="m 4661.56,7363.77 -19.49,19.49 c -3.16,3.16 -62.74,57.61 -65.91,54.45 -3.17,-3.17 51.29,-62.75 54.45,-65.91 l 19.49,-19.49 47.76,-47.76 11.46,11.46 -47.76,47.76"
         style="fill:#ffffff;fill-opacity:1;fill-rule:nonzero;stroke:none"
         id="path36" />
      <path
         d="m 5144.01,6858.4 20.78,-20.78 11.45,11.46 -20.77,20.77 -11.46,-11.45"
         style="fill:#ffffff;fill-opacity:1;fill-rule:nonzero;stroke:none"
         id="path38" />
      <path
         d="m 4713.77,7311.55 -11.46,-11.46 435.81,-435.8 11.45,11.46 -435.8,435.8"
         style="fill:#ffffff;fill-opacity:1;fill-rule:nonzero;stroke:none"
         id="path40" />
      <path
         d="m 5168.91,6833.51 60.44,-60.45 139.78,-139.78 c 3.16,-3.17 66.04,-66.03 71.76,-60.31 5.73,5.74 -57.14,68.6 -60.3,71.77 l -143.68,143.67 -56.55,56.55 -11.45,-11.45"
         style="fill:#ffffff;fill-opacity:1;fill-rule:nonzero;stroke:none"
         id="path42" />
      <path
         d="m 5368.88,6626.99 c -7.28,4.11 -155.71,154.88 -155.71,154.88 0,0 8.46,-32.91 36.06,-81.68 -0.18,6.36 -0.19,12.4 -0.19,17.73 1.58,-7.86 2.68,-16.21 4.16,-24.73 7.92,-13.51 17.33,-28.13 28.31,-43.5 0.23,10.4 2.57,21.22 2.24,31.5 -0.89,5.55 -2,10.96 -3.7,16.07 2.55,-5.1 3.51,-10.5 3.7,-16.07 2.24,-14.12 2.87,-29.29 6.68,-43.65 5.91,-7.84 12.19,-15.83 18.96,-23.97 3.35,-4.03 6.59,-7.72 9.76,-11.26 -0.2,16.15 -11.01,32.29 -2.93,48.44 0,-17.06 1.59,-35.67 7.3,-53.27 20.11,-21.64 36.47,-33.51 49.54,-39.59 -7.24,16.43 -8.44,36.66 -14.86,54.44 -2.05,4.19 -4.01,8.39 -5.81,12.58 2.39,-3.97 4.24,-8.21 5.81,-12.58 10.06,-20.52 22.85,-40.82 35.58,-60.01 15.22,-0.55 21.87,8.39 21.87,8.39 0,0 5.04,9.62 -22.75,41.03 0,0 -16.75,21.14 -24.02,25.25"
         style="fill:#ffffff;fill-opacity:1;fill-rule:nonzero;stroke:none"
         id="path44" />
      <path
         d="m 5358.2,6612.33 c -1.57,4.37 -3.42,8.61 -5.81,12.58 1.8,-4.19 3.76,-8.39 5.81,-12.58"
         style="fill:#ffffff;fill-opacity:1;fill-rule:nonzero;stroke:none"
         id="path46" />
      <path
         d="m 5411.4,6694.86 c -19.15,2.36 -35.15,14.16 -53.84,17.89 14.04,0 28.08,-4.72 42.13,-7.78 -14.05,11.66 -27.66,21.91 -40.7,31.02 -11.63,0.15 -23.68,-0.99 -32.44,7.77 5.47,0 12.37,1.39 19.19,1.23 -12.52,8.24 -24.41,15.42 -35.43,21.55 -9.12,-1.74 -18.93,-4.09 -25.1,8.23 4.17,-4.17 8.33,-3.29 12.5,-1.44 -39.83,20.71 -65.71,27.37 -65.71,27.37 0,0 150.76,-148.44 154.88,-155.71 4.11,-7.28 25.25,-24.02 25.25,-24.02 31.41,-27.79 41.02,-22.75 41.02,-22.75 0,0 8.57,6.44 8.31,21.12 -5.22,4.82 -10.18,10.42 -15.59,14.65 -5.52,2.55 -11.01,4.77 -15.97,6.43 6.04,0 11.17,-2.69 15.97,-6.43 5.07,-2.33 10.14,-4.95 14.85,-7.76 -1.34,7.28 -4.68,16.05 -11.51,26.57 -16.36,5.48 -32.59,13.43 -45.67,24.84 -1.57,1.36 -3.18,2.65 -4.64,4.11 1.46,-1.46 3.07,-2.75 4.64,-4.11 11.99,-9.6 25.37,-12.05 38.32,-14.59 -7.4,9.44 -17.26,19.99 -30.46,31.81"
         style="fill:#ffffff;fill-opacity:1;fill-rule:nonzero;stroke:none"
         id="path48" />
      <path
         d="m 5403.54,6677.64 c -1.57,1.36 -3.18,2.65 -4.64,4.11 1.51,-1.52 3.06,-2.85 4.64,-4.11"
         style="fill:#ffffff;fill-opacity:1;fill-rule:nonzero;stroke:none"
         id="path50" />
      <path
         d="m 5431.8,7445.66 c -4.48,4.48 -88.81,-72.58 -93.29,-77.06 l -27.58,-27.59 v 72.14 l 150.54,62.19 -62.18,-150.55 h -72.14 l 27.58,27.58 c 4.48,4.49 81.55,88.82 77.07,93.29"
         style="fill:#ffffff;fill-opacity:1;fill-rule:nonzero;stroke:none"
         id="path52" />
      <path
         d="m 5338.44,7363.77 19.49,19.49 c 3.16,3.16 62.74,57.61 65.91,54.45 3.16,-3.17 -51.28,-62.75 -54.45,-65.91 l -19.49,-19.49 -47.76,-47.76 -11.46,11.46 47.76,47.76"
         style="fill:#ffffff;fill-opacity:1;fill-rule:nonzero;stroke:none"
         id="path54" />
      <path
         d="m 4855.99,6858.4 -20.78,-20.78 -11.46,11.46 20.78,20.77 11.46,-11.45"
         style="fill:#ffffff;fill-opacity:1;fill-rule:nonzero;stroke:none"
         id="path56" />
      <path
         d="m 5286.23,7311.55 11.46,-11.46 -435.8,-435.8 -11.46,11.46 435.8,435.8"
         style="fill:#ffffff;fill-opacity:1;fill-rule:nonzero;stroke:none"
         id="path58" />
      <path
         d="m 4831.1,6833.51 -60.44,-60.45 -139.79,-139.78 c -3.16,-3.17 -66.03,-66.03 -71.76,-60.31 -5.73,5.74 57.14,68.6 60.3,71.77 l 143.68,143.67 56.55,56.55 11.46,-11.45"
         style="fill:#ffffff;fill-opacity:1;fill-rule:nonzero;stroke:none"
         id="path60" />
      <path
         d="m 4631.12,6626.99 c 7.27,4.11 155.71,154.88 155.71,154.88 0,0 -8.46,-32.91 -36.06,-81.68 0.18,6.36 0.19,12.4 0.19,17.73 -1.58,-7.86 -2.67,-16.21 -4.16,-24.73 -7.92,-13.51 -17.33,-28.13 -28.31,-43.5 -0.23,10.4 -2.57,21.22 -2.24,31.5 0.88,5.55 2,10.96 3.7,16.07 -2.54,-5.1 -3.51,-10.5 -3.7,-16.07 -2.24,-14.12 -2.87,-29.29 -6.68,-43.65 -5.91,-7.84 -12.19,-15.83 -18.96,-23.97 -3.35,-4.03 -6.59,-7.72 -9.76,-11.26 0.21,16.15 11,32.29 2.93,48.44 0,-17.06 -1.59,-35.67 -7.3,-53.27 -20.11,-21.64 -36.47,-33.51 -49.53,-39.59 7.23,16.43 8.43,36.66 14.84,54.44 2.06,4.19 4.02,8.39 5.82,12.58 -2.39,-3.97 -4.24,-8.21 -5.82,-12.58 -10.06,-20.52 -22.84,-40.82 -35.57,-60.01 -15.23,-0.55 -21.87,8.39 -21.87,8.39 0,0 -5.04,9.62 22.75,41.03 0,0 16.74,21.14 24.02,25.25"
         style="fill:#ffffff;fill-opacity:1;fill-rule:nonzero;stroke:none"
         id="path62" />
      <path
         d="m 4641.79,6612.33 c 1.58,4.37 3.43,8.61 5.82,12.58 -1.8,-4.19 -3.76,-8.39 -5.82,-12.58"
         style="fill:#ffffff;fill-opacity:1;fill-rule:nonzero;stroke:none"
         id="path64" />
      <path
         d="m 4588.6,6694.86 c 19.15,2.36 35.15,14.16 53.84,17.89 -14.04,0 -28.08,-4.72 -42.13,-7.78 14.05,11.66 27.65,21.91 40.7,31.02 11.63,0.15 23.68,-0.99 32.44,7.77 -5.47,0 -12.37,1.39 -19.19,1.23 12.51,8.24 24.41,15.42 35.43,21.55 9.12,-1.74 18.94,-4.09 25.1,8.23 -4.17,-4.17 -8.33,-3.29 -12.5,-1.44 39.83,20.71 65.71,27.37 65.71,27.37 0,0 -150.77,-148.44 -154.88,-155.71 -4.11,-7.28 -25.25,-24.02 -25.25,-24.02 -31.41,-27.79 -41.03,-22.75 -41.03,-22.75 0,0 -8.56,6.44 -8.3,21.12 5.21,4.82 10.18,10.42 15.6,14.65 5.51,2.55 11,4.77 15.96,6.43 -6.04,0 -11.18,-2.69 -15.96,-6.43 -5.08,-2.33 -10.15,-4.95 -14.86,-7.76 1.35,7.28 4.69,16.05 11.52,26.57 16.35,5.48 32.58,13.43 45.67,24.84 1.55,1.36 3.17,2.65 4.63,4.11 -1.46,-1.46 -3.08,-2.75 -4.63,-4.11 -12,-9.6 -25.38,-12.05 -38.32,-14.59 7.38,9.44 17.25,19.99 30.45,31.81"
         style="fill:#ffffff;fill-opacity:1;fill-rule:nonzero;stroke:none"
         id="path66" />
      <path
         d="m 4596.47,6677.64 c 1.55,1.36 3.17,2.65 4.63,4.11 -1.52,-1.52 -3.06,-2.85 -4.63,-4.11"
         style="fill:#ffffff;fill-opacity:1;fill-rule:nonzero;stroke:none"
         id="path68" />
      <path
         d="M 7183.98,4267.56 C 6825.43,3247.52 6045.17,2412.09 4998.88,1989.48 3954.83,2411.2 3175.45,3244.4 2816.02,4261.33 l 2168.63,-418.17 2199.33,424.4"
         style="fill:#cbe8f7;fill-opacity:1;fill-rule:nonzero;stroke:none"
         id="path70" />
    </g>
  </g>
</svg>
