<?xml version="1.0" encoding="UTF-8" standalone="no"?>
<!-- Created with Inkscape (http://www.inkscape.org/) -->

<svg
   version="1.1"
   id="svg2"
   width="1333.3333"
   height="1333.3333"
   viewBox="0 0 1333.3333 1333.3333"
   sodipodi:docname="64182.eps"
   xmlns:inkscape="http://www.inkscape.org/namespaces/inkscape"
   xmlns:sodipodi="http://sodipodi.sourceforge.net/DTD/sodipodi-0.dtd"
   xmlns="http://www.w3.org/2000/svg"
   xmlns:svg="http://www.w3.org/2000/svg">
  <defs
     id="defs6" />
  <sodipodi:namedview
     id="namedview4"
     pagecolor="#ffffff"
     bordercolor="#000000"
     borderopacity="0.25"
     inkscape:showpageshadow="2"
     inkscape:pageopacity="0.0"
     inkscape:pagecheckerboard="0"
     inkscape:deskcolor="#d1d1d1" />
  <g
     id="g8"
     inkscape:groupmode="layer"
     inkscape:label="ink_ext_XXXXXX"
     transform="matrix(1.3333333,0,0,-1.3333333,0,1333.3333)">
    <g
       id="g10"
       transform="scale(0.1)">
      <path
         d="m 8087.07,4989.65 c 0,0 -68.79,300 -1189.13,-252 -1120.34,-552.01 -668.27,-24 334.13,372 1002.41,396 1307.07,0 1827.93,0 0,0 -157.25,-468 -461.89,-660 0,0 343.96,-240 461.89,-540 0,0 -687.93,95.99 -972.93,48 v 1032"
         style="fill:#81bfe6;fill-opacity:1;fill-rule:nonzero;stroke:none"
         id="path14" />
      <path
         d="m 6284.23,3901.8 -41.79,-12.72 v 631.39 h 41.79 V 3901.8"
         style="fill:#81bfe6;fill-opacity:1;fill-rule:nonzero;stroke:none"
         id="path16" />
      <path
         d="m 1912.92,4989.65 c 0,0 68.8,300 1189.14,-252 1120.34,-552.01 668.27,-24 -334.14,372 -1002.41,396 -1307.06,0 -1827.92,0 0,0 157.24,-468 461.89,-660 0,0 -343.96,-240 -461.89,-540 0,0 687.92,95.99 972.92,48 v 1032"
         style="fill:#81bfe6;fill-opacity:1;fill-rule:nonzero;stroke:none"
         id="path18" />
      <path
         d="m 3715.77,3901.8 41.79,-12.72 v 631.39 h -41.79 V 3901.8"
         style="fill:#81bfe6;fill-opacity:1;fill-rule:nonzero;stroke:none"
         id="path20" />
      <path
         d="m 7490.33,3842.31 c 0,-24.56 -0.41,-48.72 -1.61,-73.28 -0.8,-23.35 -2.41,-46.7 -4.42,-70.06 -0.41,-6.44 -0.81,-12.88 -1.61,-18.92 -1.62,-16.5 -3.23,-33.42 -5.65,-49.92 -0.8,-7.65 -1.61,-15.29 -3.22,-22.95 -1.61,-15.3 -4.03,-30.6 -6.43,-45.9 -2.83,-16.1 -5.64,-32.61 -8.86,-48.71 -0.41,-3.62 -1.21,-7.25 -2.03,-10.47 -2.4,-12.88 -5.23,-25.76 -8.45,-38.24 -3.21,-16.51 -7.24,-33.02 -11.68,-49.52 -5.23,-21.75 -11.26,-43.09 -17.69,-64.43 -0.83,-3.21 -2.03,-6.43 -2.83,-9.65 -5.64,-18.53 -11.68,-37.05 -18.13,-55.56 -1.2,-4.04 -2.81,-8.06 -4.01,-12.08 -6.05,-17.32 -12.48,-34.22 -19.33,-51.14 -1.61,-6.03 -4.02,-11.67 -6.85,-17.71 -6.04,-15.7 -12.46,-31.4 -19.72,-47.11 -1.2,-4.42 -3.22,-9.26 -5.64,-13.68 -6.04,-14.09 -12.48,-28.19 -19.33,-42.28 -4.03,-8.85 -8.04,-17.31 -12.87,-26.17 -6.03,-12.88 -12.49,-25.76 -19.74,-38.65 -7.23,-13.68 -14.49,-27.37 -22.53,-41.07 -8.06,-14.89 -16.51,-29.79 -25.77,-44.68 -11.29,-18.93 -22.55,-37.04 -35.04,-55.56 -24.16,-37.04 -49.91,-72.87 -76.48,-107.9 -13.29,-16.91 -26.97,-33.82 -41.07,-50.73 -38.65,-46.7 -80.13,-90.99 -123.6,-133.26 -10.48,-10.47 -21.35,-20.94 -32.21,-30.2 -27.78,-26.16 -56.36,-51.13 -86.17,-74.88 -13.68,-11.28 -27.78,-22.15 -41.87,-32.62 -2,-2.01 -4.43,-3.62 -6.84,-5.22 -16.1,-12.08 -32.62,-24.16 -49.11,-35.84 l -1.22,-0.8 c -18.1,-12.49 -36.64,-24.97 -55.16,-36.65 -14.49,-9.25 -28.98,-18.11 -43.87,-26.97 -9.66,-6.03 -19.33,-11.67 -28.99,-16.9 -2.02,-1.21 -4.44,-2.42 -6.44,-3.64 -16.91,-9.65 -34.23,-19.31 -51.94,-28.17 -18.52,-9.67 -37.45,-19.33 -56.77,-28.18 -16.91,-8.46 -34.21,-16.11 -51.53,-23.76 -18.51,-8.05 -37.04,-15.71 -55.96,-22.95 -22.94,-9.26 -46.3,-18.12 -70.05,-26.16 L 5000.2,1750.36 3672.41,2209.74 c -23.75,8.04 -47.1,16.9 -70.04,26.16 -18.94,7.24 -37.45,14.9 -55.97,22.95 -17.32,7.65 -34.62,15.3 -51.55,23.76 -19.32,8.85 -37.84,18.51 -56.75,28.18 -18.52,9.66 -37.03,19.73 -55.16,30.2 -10.87,6.03 -21.35,12.07 -31.81,18.51 -14.9,8.86 -29.39,17.72 -43.88,26.97 -16.51,10.47 -32.61,20.94 -48.32,31.81 -6.04,4.44 -12.07,8.46 -18.12,12.88 -12.88,9.27 -25.76,18.53 -38.24,27.78 -2.81,2.02 -5.23,4.03 -7.65,6.04 -14.09,10.47 -28.19,21.34 -41.87,32.62 -29.8,23.75 -58.39,48.72 -86.16,74.88 -10.88,9.67 -21.74,19.73 -32.2,30.2 -29.81,28.58 -58.39,58.37 -85.77,88.97 -13.69,15.3 -26.98,31.01 -39.85,46.71 -13.69,15.69 -26.58,31.81 -38.65,48.31 l -0.81,0.8 c -13.68,18.13 -27.77,36.64 -41.06,55.57 -31.4,43.88 -60.81,89.37 -87.36,136.47 -7.26,12.08 -14.1,24.56 -20.94,37.05 -3.62,6.44 -7.26,12.88 -10.48,19.32 -6.84,12.89 -13.27,25.77 -19.72,38.65 -4.44,8.86 -8.86,17.32 -12.89,26.17 -6.84,14.09 -13.27,28.19 -19.31,42.28 -2.44,4.42 -4.03,9.26 -5.64,13.68 -7.26,15.71 -13.7,31.41 -19.73,47.11 -2.82,6.04 -5.23,11.68 -6.85,17.71 -6.84,16.92 -13.29,33.82 -19.32,51.14 -1.22,4.02 -2.81,8.04 -4.04,12.08 -6.42,18.51 -12.48,37.03 -18.1,55.56 -0.81,3.22 -2.02,6.44 -2.83,9.65 -6.45,21.34 -12.48,42.68 -17.71,64.43 -4.43,16.5 -8.45,33.01 -11.68,49.52 -3.23,12.48 -6.04,25.36 -8.45,38.24 -0.81,3.22 -1.2,6.85 -2.01,10.47 -3.22,16.1 -6.03,32.61 -8.86,48.71 -2.42,15.3 -4.84,30.6 -6.45,45.9 -1.61,7.66 -2.4,15.3 -3.21,22.95 -2.41,16.5 -4.02,33.42 -5.64,49.92 -0.8,6.04 -1.22,12.48 -1.61,18.92 -2,23.36 -3.62,46.71 -4.42,70.06 -1.22,24.56 -1.61,48.72 -1.61,73.28 v 2796.9 c 0,83.34 45.07,161.45 117.56,202.92 L 5000.2,8212.2 7373.16,6842.13 c 72.49,-41.47 117.17,-119.58 117.17,-202.92 v -2796.9 m 76.49,3335.59 -2566.62,1482 -2567.01,-1482 c -192.45,-111.12 -311.23,-316.44 -311.23,-538.69 v -2796.9 c 0,-237.14 39.48,-467.44 113.55,-683.23 206.53,-605.51 682.42,-1098.72 1310.48,-1315.72 L 5000.2,1340.1 6454.42,1843.36 c 627.67,217 1103.56,710.21 1310.09,1315.72 74.07,215.79 113.53,446.09 113.53,683.23 v 2796.9 c 0,222.25 -118.75,427.57 -311.22,538.69"
         style="fill:#2f4c86;fill-opacity:1;fill-rule:nonzero;stroke:none"
         id="path22" />
      <path
         d="m 7367.94,6639.21 v -2796.9 c 0,-683.64 -434.01,-1293.18 -1080.59,-1517.03 L 5000.2,1880 3712.67,2325.28 c -646.18,223.85 -1080.59,833.39 -1080.59,1517.03 v 2796.9 c 0,39.86 21.74,76.9 56.36,97.04 L 5000.2,8070.88 7311.97,6736.25 c 34.64,-20.14 55.97,-57.18 55.97,-97.04"
         style="fill:#5474a5;fill-opacity:1;fill-rule:nonzero;stroke:none"
         id="path24" />
      <path
         d="M 7367.94,5285.65 V 3842.31 c 0,-683.64 -434.01,-1293.18 -1080.59,-1517.03 L 5000.2,1880 3712.67,2325.28 c -646.18,223.85 -1080.59,833.39 -1080.59,1517.03 v 1443.34 h 4735.86"
         style="fill:#2f4c86;fill-opacity:1;fill-rule:nonzero;stroke:none"
         id="path26" />
      <path
         d="m 3148.66,2663.07 h -0.05 c -96.62,39.85 -189.63,81.32 -278.19,123.6 v 0 l -0.81,0.8 c -13.68,18.13 -27.77,36.64 -41.06,55.57 -31.4,43.88 -60.81,89.37 -87.36,136.47 -7.26,12.08 -14.1,24.56 -20.94,37.05 -3.62,6.44 -7.26,12.88 -10.48,19.32 -6.84,12.89 -13.27,25.77 -19.72,38.65 -4.44,8.86 -8.86,17.32 -12.89,26.17 -6.84,14.09 -13.27,28.19 -19.31,42.28 -2.44,4.42 -4.03,9.26 -5.64,13.68 -7.26,15.71 -13.7,31.41 -19.73,47.11 -2.82,6.04 -5.23,11.68 -6.85,17.71 -6.84,16.92 -13.29,33.82 -19.32,51.14 -1.22,4.02 -2.81,8.04 -4.04,12.08 -6.42,18.51 -12.48,37.03 -18.1,55.56 -0.81,3.22 -2.02,6.44 -2.83,9.65 -6.45,21.34 -12.48,42.68 -17.71,64.43 -4.43,16.5 -8.45,33.01 -11.68,49.52 -3.23,12.48 -6.04,25.36 -8.45,38.24 -0.81,3.22 -1.2,6.85 -2.01,10.47 -3.22,16.1 -6.03,32.61 -8.86,48.71 -2.42,15.3 -4.84,30.6 -6.45,45.9 -1.61,7.66 -2.4,15.3 -3.21,22.95 -2.41,16.5 -4.02,33.42 -5.64,49.92 -0.8,6.04 -1.22,12.48 -1.61,18.92 -2,23.36 -3.62,46.71 -4.42,70.06 -1.22,24.56 -1.61,48.72 -1.61,73.28 v 408.64 0 c 39.03,-25.76 80.1,-51.13 122.39,-76.5 v -332.14 0 c 0,-457.36 194.39,-881.51 516.58,-1179.24 m 3703.45,0.52 c 321.82,297.7 515.83,721.65 515.83,1178.72 v 331.74 0 c 42.27,25.37 83.33,51.14 122.39,76.5 v -408.24 c 0,-24.56 -0.41,-48.72 -1.61,-73.28 -0.8,-23.35 -2.41,-46.7 -4.42,-70.06 -0.41,-6.44 -0.81,-12.88 -1.61,-18.92 -1.62,-16.5 -3.23,-33.42 -5.65,-49.92 -0.8,-7.65 -1.61,-15.29 -3.22,-22.95 -1.61,-15.3 -4.03,-30.6 -6.43,-45.9 -2.83,-16.1 -5.64,-32.61 -8.86,-48.71 -0.41,-3.62 -1.21,-7.25 -2.03,-10.47 -2.4,-12.88 -5.23,-25.76 -8.45,-38.24 -3.21,-16.51 -7.24,-33.02 -11.68,-49.52 -5.23,-21.75 -11.26,-43.09 -17.69,-64.43 -0.83,-3.21 -2.03,-6.43 -2.83,-9.65 -5.64,-18.53 -11.68,-37.05 -18.13,-55.56 -1.2,-4.04 -2.81,-8.06 -4.01,-12.08 -6.05,-17.32 -12.48,-34.22 -19.33,-51.14 -1.61,-6.03 -4.02,-11.67 -6.85,-17.71 -6.04,-15.7 -12.46,-31.4 -19.72,-47.11 -1.2,-4.42 -3.22,-9.26 -5.64,-13.68 -6.04,-14.09 -12.48,-28.19 -19.33,-42.28 -4.03,-8.85 -8.04,-17.31 -12.87,-26.17 -6.03,-12.88 -12.49,-25.76 -19.74,-38.65 -7.23,-13.68 -14.49,-27.37 -22.53,-41.07 -8.06,-14.89 -16.51,-29.79 -25.77,-44.68 -11.29,-18.93 -22.55,-37.04 -35.04,-55.56 -24.16,-37.04 -49.91,-72.87 -76.48,-107.9 v 0 h -0.42 c -88.46,-42.23 -180.98,-83.25 -277.88,-123.08"
         style="fill:#929292;fill-opacity:1;fill-rule:nonzero;stroke:none"
         id="path28" />
      <path
         d="m 7130.41,2786.67 v 0 0 c 26.57,35.03 52.32,70.86 76.48,107.9 12.49,18.52 23.75,36.63 35.04,55.56 9.26,14.89 17.71,29.79 25.77,44.68 8.04,13.7 15.3,27.39 22.53,41.07 7.25,12.89 13.71,25.77 19.74,38.65 4.83,8.86 8.84,17.32 12.87,26.17 6.85,14.09 13.29,28.19 19.33,42.28 2.42,4.42 4.44,9.26 5.64,13.68 7.26,15.71 13.68,31.41 19.72,47.11 2.83,6.04 5.24,11.68 6.85,17.71 6.85,16.92 13.28,33.82 19.33,51.14 1.2,4.02 2.81,8.04 4.01,12.08 6.45,18.51 12.49,37.03 18.13,55.56 0.8,3.22 2,6.44 2.83,9.65 6.43,21.34 12.46,42.68 17.69,64.43 4.44,16.5 8.47,33.01 11.68,49.52 3.22,12.48 6.05,25.36 8.45,38.24 0.82,3.22 1.62,6.85 2.03,10.47 3.22,16.1 6.03,32.61 8.86,48.71 2.4,15.3 4.82,30.6 6.43,45.9 1.61,7.66 2.42,15.3 3.22,22.95 2.42,16.5 4.03,33.42 5.65,49.92 0.8,6.04 1.2,12.48 1.61,18.92 2.01,23.36 3.62,46.71 4.42,70.06 1.2,24.56 1.61,48.72 1.61,73.28 v 408.24 0 c 158.23,102.26 289.86,202.91 387.71,293.5 v -701.74 c 0,-237.14 -39.46,-467.44 -113.53,-683.23 v 0 c -161.45,-120.38 -378.86,-250.02 -634.1,-372.41 m -4259.99,0 v 0 H 2870 c -255.63,121.99 -473.06,252.03 -634.49,372.41 v 0 c -74.07,215.79 -113.55,446.09 -113.55,683.23 v 702.14 c 97.45,-90.58 229.49,-191.24 387.73,-293.5 v -408.64 c 0,-24.56 0.39,-48.72 1.61,-73.28 0.8,-23.35 2.42,-46.7 4.42,-70.06 0.39,-6.44 0.81,-12.88 1.61,-18.92 1.62,-16.5 3.23,-33.42 5.64,-49.92 0.81,-7.65 1.6,-15.29 3.21,-22.95 1.61,-15.3 4.03,-30.6 6.45,-45.9 2.83,-16.1 5.64,-32.61 8.86,-48.71 0.81,-3.62 1.2,-7.25 2.01,-10.47 2.41,-12.88 5.22,-25.76 8.45,-38.24 3.23,-16.51 7.25,-33.02 11.68,-49.52 5.23,-21.75 11.26,-43.09 17.71,-64.43 0.81,-3.21 2.02,-6.43 2.83,-9.65 5.62,-18.53 11.68,-37.05 18.1,-55.56 1.23,-4.04 2.82,-8.06 4.04,-12.08 6.03,-17.32 12.48,-34.22 19.32,-51.14 1.62,-6.03 4.03,-11.67 6.85,-17.71 6.03,-15.7 12.47,-31.4 19.73,-47.11 1.61,-4.42 3.2,-9.26 5.64,-13.68 6.04,-14.09 12.47,-28.19 19.31,-42.28 4.03,-8.85 8.45,-17.31 12.89,-26.17 6.45,-12.88 12.88,-25.76 19.72,-38.65 3.22,-6.44 6.86,-12.88 10.48,-19.32 6.84,-12.49 13.68,-24.97 20.94,-37.05 26.55,-47.1 55.96,-92.59 87.36,-136.47 13.29,-18.93 27.38,-37.44 41.06,-55.57 l 0.81,-0.8 v 0"
         style="fill:#1c2e50;fill-opacity:1;fill-rule:nonzero;stroke:none"
         id="path30" />
      <path
         d="m 5000.2,2282.61 c -223.85,0 -405.02,10.87 -498.42,21.74 -478.29,55.55 -948.13,192.85 -1352.76,358.72 h -0.36 c -322.19,297.73 -516.58,721.88 -516.58,1179.24 v 0 332.14 0 c 514.52,-309.6 1250.09,-614.37 1994.52,-682.01 148.12,-7.88 274.58,-12.24 397.05,-12.24 115.19,0 226.84,3.85 349.78,12.24 744.4,67.64 1479.99,372.41 1994.51,681.61 v -331.74 c 0,-457.07 -194.01,-881.02 -515.83,-1178.72 -0.1,-0.04 -0.2,-0.08 -0.3,-0.12 -404.63,-166.27 -874.48,-303.57 -1353.18,-359.12 -93.4,-10.87 -274.99,-21.74 -498.43,-21.74"
         style="fill:#1c2e50;fill-opacity:1;fill-rule:nonzero;stroke:none"
         id="path32" />
      <path
         d="M 3712.66,2325.36 C 3066.43,2548.95 2632.25,3158.6 2632.25,3842.41 v 2796.6 c 0,39.97 21.48,77.2 56.09,97.15 L 5000.08,8070.85 7311.84,6736.16 c 34.62,-19.95 56.1,-57.18 56.1,-97.15 v -2796.6 c 0,-683.81 -434.19,-1293.46 -1080.41,-1517.05 L 5000.08,1879.92 Z M 7373.12,6842.31 5000.08,8212.37 2627.07,6842.31 c -72.41,-41.79 -117.37,-119.7 -117.37,-203.3 v -2796.6 c 0,-736.01 467.33,-1392.2 1162.86,-1632.84 l 1327.52,-459.32 1327.54,459.32 c 695.53,240.64 1162.87,896.83 1162.87,1632.84 v 2796.6 c 0,83.6 -44.97,161.51 -117.37,203.3"
         style="fill:#ffffff;fill-opacity:1;fill-rule:nonzero;stroke:none"
         id="path34" />
      <path
         d="m 4626.56,3693.65 c -1284.17,116.8 -2542.3,938.92 -2683.97,1273.36 V 3887.09 c 0,-174.32 67.76,-339.26 184.3,-439.92 403.69,-348.68 1370.26,-824.92 2374.6,-941.38 93.51,-10.84 274.9,-22.02 498.5,-22.02 223.6,0 405,11.18 498.52,22.02 1004.33,116.46 1970.91,592.7 2374.6,941.38 116.54,100.66 184.3,265.6 184.3,439.92 V 4967.01 C 7915.74,4632.57 6657.61,3810.45 5373.44,3693.65 c -253.88,-17.04 -459.64,-15.15 -746.88,0"
         style="fill:#81bfe6;fill-opacity:1;fill-rule:nonzero;stroke:none"
         id="path36" />
      <path
         d="m 4989.58,7459.73 132.39,-268.27 296.05,-43.01 -214.22,-208.82 50.58,-294.84 -264.8,139.2 -264.79,-139.2 50.57,294.84 -214.22,208.82 296.04,43.01 132.4,268.27"
         style="fill:#ffffff;fill-opacity:1;fill-rule:nonzero;stroke:none"
         id="path38" />
      <path
         d="m 5913.02,6847.74 64.09,-129.87 143.32,-20.82 -103.71,-101.1 24.49,-142.74 -128.19,67.4 -128.2,-67.4 24.49,142.74 -103.71,101.1 143.32,20.82 64.1,129.87"
         style="fill:#ffffff;fill-opacity:1;fill-rule:nonzero;stroke:none"
         id="path40" />
      <path
         d="m 4066.15,6847.74 64.09,-129.87 143.32,-20.82 -103.71,-101.1 24.49,-142.74 -128.19,67.4 -128.2,-67.4 24.49,142.74 -103.71,101.1 143.32,20.82 64.1,129.87"
         style="fill:#ffffff;fill-opacity:1;fill-rule:nonzero;stroke:none"
         id="path42" />
    </g>
  </g>
</svg>
