<?xml version="1.0" encoding="UTF-8" standalone="no"?>
<!-- Created with Inkscape (http://www.inkscape.org/) -->

<svg
   version="1.1"
   id="svg2"
   width="1333.3333"
   height="1333.3333"
   viewBox="0 0 1333.3333 1333.3333"
   sodipodi:docname="66917.eps"
   xmlns:inkscape="http://www.inkscape.org/namespaces/inkscape"
   xmlns:sodipodi="http://sodipodi.sourceforge.net/DTD/sodipodi-0.dtd"
   xmlns="http://www.w3.org/2000/svg"
   xmlns:svg="http://www.w3.org/2000/svg">
  <defs
     id="defs6" />
  <sodipodi:namedview
     id="namedview4"
     pagecolor="#ffffff"
     bordercolor="#000000"
     borderopacity="0.25"
     inkscape:showpageshadow="2"
     inkscape:pageopacity="0.0"
     inkscape:pagecheckerboard="0"
     inkscape:deskcolor="#d1d1d1" />
  <g
     id="g8"
     inkscape:groupmode="layer"
     inkscape:label="ink_ext_XXXXXX"
     transform="matrix(1.3333333,0,0,-1.3333333,0,1333.3333)">
    <g
       id="g10"
       transform="scale(0.1)">
      <path
         d="M 0,0 H 10000 V 10000 H 0 Z"
         style="fill:#f4f4f4;fill-opacity:1;fill-rule:nonzero;stroke:none"
         id="path12" />
      <path
         d="m 6957.78,2852.61 h 1974.79 l -474.85,524.35 474.85,524.35 h -942.32 v -863.96 l -995.66,-148.98 v 1012.94 h -36.81 v -1048.7"
         style="fill:#2f4c86;fill-opacity:1;fill-rule:nonzero;stroke:none"
         id="path14" />
      <path
         d="M 3042.22,2852.61 H 1067.43 l 474.84,524.35 -474.84,524.35 h 942.32 v -863.96 l 995.66,-148.98 v 1012.94 h 36.81 v -1048.7"
         style="fill:#2f4c86;fill-opacity:1;fill-rule:nonzero;stroke:none"
         id="path16" />
      <path
         d="m 7387.06,3441.77 c 0,-110.58 -54.14,-214.59 -144.36,-278.57 L 7081.26,3049.34 5000,1582.32 2921.04,3047.7 2756.99,3163.2 c -90.24,63.98 -144.37,167.99 -144.37,278.57 v 3288.72 l 970.9,470.53 c 146.66,70.87 230.99,227.38 209.98,388.82 l -75.13,576.18 1281.63,324.17 1281.3,-324.17 -75.15,-576.18 c -20.98,-161.44 63.33,-317.95 210.01,-388.82 l 970.9,-470.53 V 3441.77 M 6580.88,7540.95 6699.33,8449.84 5000,8880 3300.36,8449.84 3418.8,7540.95 2234.95,6967.4 V 3441.77 c 0,-191.62 76.45,-373.73 209.33,-506.94 29.21,-29.21 60.71,-56.12 95.15,-80.4 L 5000,1120 7460.23,2854.43 c 35.1,24.61 67.59,52.17 97.12,82.03 131.91,133.55 207.71,314.67 207.71,505.31 V 6967.4 l -1184.18,573.55"
         style="fill:#81bfe6;fill-opacity:1;fill-rule:nonzero;stroke:none"
         id="path18" />
      <path
         d="m 7137.03,6573.98 v -759.59 c -704.14,178.17 -1432.24,249.7 -2137.03,249.7 -709.72,0 -1433.54,-76.78 -2137.03,-254.95 v 764.84 l 829.81,401.62 c 243.47,118.12 383.89,377.99 348.79,646.72 L 3995.3,7978 5000,8232.29 6004.37,7978 5958.12,7622.32 c -35.12,-268.73 105.32,-528.6 348.77,-646.72 l 830.14,-401.62"
         style="fill:#cbe8f7;fill-opacity:1;fill-rule:nonzero;stroke:none"
         id="path20" />
      <path
         d="m 7137.03,3441.8 c 0,-29.4 -14.35,-57.07 -38.38,-74.01 L 4999.99,1888.4 2901.34,3367.78 c -24.02,16.95 -38.37,44.61 -38.37,74.02 v 3132.04 l 829.83,401.92 c 243.74,118.07 383.99,377.85 349,646.46 l -46.4,355.67 1004.59,254.25 1004.61,-254.25 -46.4,-355.69 c -35,-268.58 105.27,-528.37 349,-646.44 l 829.83,-401.92 V 3441.8 M 6359.6,7083.95 c -197.09,95.47 -310.49,305.54 -282.2,522.72 l 60.21,461.56 -1137.62,287.91 -1137.6,-287.91 60.21,-461.56 c 28.29,-217.18 -85.12,-427.25 -282.21,-522.72 L 2742.76,6649.19 V 3441.8 c 0,-68.45 33.4,-132.84 89.32,-172.26 L 4999.99,1741.32 7167.92,3269.54 c 55.91,39.42 89.32,103.81 89.32,172.26 v 3207.39 l -897.64,434.76"
         style="fill:#81bfe6;fill-opacity:1;fill-rule:nonzero;stroke:none"
         id="path22" />
      <path
         d="m 7257.24,3441.8 c 0,-68.45 -33.4,-132.84 -89.33,-172.26 L 5000,1741.32 2832.08,3269.54 c -55.91,39.42 -89.31,103.81 -89.31,172.26 v 3207.39 l 897.62,434.76 c 197.1,95.47 310.49,305.54 282.2,522.72 l -60.2,461.56 1137.61,287.91 1137.61,-287.91 -60.2,-461.56 c -28.3,-217.18 85.1,-427.25 282.2,-522.72 l 897.63,-434.76 V 3441.8 m -1050.99,4148.06 75.11,576 -1281.36,324.32 -1281.36,-324.32 75.12,-576 c 21.05,-161.61 -63.32,-317.95 -210.01,-389 l -970.9,-470.22 V 3441.8 c 0,-110.64 53.99,-214.73 144.38,-278.46 l 2242.77,-1581 2242.77,1581 c 90.39,63.73 144.38,167.82 144.38,278.46 v 3288.84 l -970.9,470.22 c -146.69,71.05 -231.06,227.39 -210,389"
         style="fill:#ffffff;fill-opacity:1;fill-rule:nonzero;stroke:none"
         id="path24" />
      <path
         d="M 7137.03,5814.39 V 3441.77 c 0,-29.21 -14.43,-57.09 -38.39,-73.83 L 5000,1888.46 2901.36,3367.94 c -24.29,16.74 -38.39,44.3 -38.39,73.83 v 2367.37 c 703.48,178.17 1427.31,254.95 2137.03,254.95 704.79,0 1432.89,-71.53 2137.03,-249.7"
         style="fill:#81bfe6;fill-opacity:1;fill-rule:nonzero;stroke:none"
         id="path26" />
      <path
         d="m 2921.04,3047.7 v 0 l -164.05,115.5 c -90.24,63.98 -144.37,167.99 -144.37,278.57 v 658.53 0 c 0.09,0.03 0.13,0.04 0.23,0.07 V 3441.8 c 0,-110.64 53.99,-214.73 144.38,-278.46 l 164,-115.61 c -0.04,0 -0.14,-0.03 -0.19,-0.03"
         style="fill:#929292;fill-opacity:1;fill-rule:nonzero;stroke:none"
         id="path28" />
      <path
         d="m 2444.28,2934.83 v 0 c -132.88,133.21 -209.33,315.32 -209.33,506.94 v 538.11 c 125.01,43.64 250.68,84 377.67,120.42 v -658.53 c 0,-110.58 54.13,-214.59 144.37,-278.57 l 164.05,-115.5 v 0 c -159.79,-33.15 -318.93,-70.87 -476.76,-112.87"
         style="fill:#4d738a;fill-opacity:1;fill-rule:nonzero;stroke:none"
         id="path30" />
      <path
         d="m 3263.55,3112.45 -221.33,156.03 v 0.16 l 221.5,-156.16 c -0.04,-0.01 -0.13,-0.02 -0.17,-0.03 m -258.14,181.97 -104.07,73.36 c -3.66,2.59 -7.1,5.42 -10.3,8.48 3.19,-3 6.64,-5.79 10.32,-8.32 l 104.05,-73.35 v -0.17"
         style="fill:#929292;fill-opacity:1;fill-rule:nonzero;stroke:none"
         id="path32" />
      <path
         d="m 3042.22,3268.48 -36.81,25.94 v 0.17 l 36.81,-25.95 v -0.16"
         style="fill:#1c2e50;fill-opacity:1;fill-rule:nonzero;stroke:none"
         id="path34" />
      <path
         d="m 3097.19,3082.66 -265.11,186.88 v 0 c -55.91,39.42 -89.31,103.81 -89.31,172.26 v 695.04 c 39.99,10.83 80.07,21.34 120.2,31.51 v -726.55 0 -0.03 c 0,-25.06 10.15,-48.7 28.07,-65.51 3.2,-3.06 6.64,-5.89 10.3,-8.48 l 104.07,-73.36 36.81,-25.94 221.33,-156.03 c -55.53,-9.43 -110.98,-19.36 -166.36,-29.79"
         style="fill:#4d738a;fill-opacity:1;fill-rule:nonzero;stroke:none"
         id="path36" />
      <path
         d="m 2921.23,3047.73 -164,115.61 c -90.39,63.73 -144.38,167.82 -144.38,278.46 v 658.57 c 43.22,12.55 86.52,24.71 129.92,36.47 V 3441.8 c 0,-68.45 33.4,-132.84 89.31,-172.26 v 0 l 265.11,-186.88 c -58.79,-11.08 -117.38,-22.7 -175.96,-34.93"
         style="fill:#999999;fill-opacity:1;fill-rule:nonzero;stroke:none"
         id="path38" />
      <path
         d="m 7081.26,3049.34 c -0.04,0 -0.12,0.02 -0.16,0.03 l 161.67,113.97 c 7.06,4.98 13.89,10.19 20.5,15.64 -6.63,-5.49 -13.49,-10.76 -20.57,-15.78 l -161.44,-113.86"
         style="fill:#929292;fill-opacity:1;fill-rule:nonzero;stroke:none"
         id="path40" />
      <path
         d="m 7557.35,2936.46 c -157.49,42.33 -316.31,80.06 -476.09,112.88 v 0 l 161.44,113.86 c 7.08,5.02 13.94,10.29 20.57,15.78 77.99,64.38 123.88,160.82 123.88,262.82 v 664.05 c 126.95,-37.07 252.92,-78.08 377.91,-122.36 v -541.72 c 0,-190.64 -75.8,-371.76 -207.71,-505.31 v 0"
         style="fill:#4d738a;fill-opacity:1;fill-rule:nonzero;stroke:none"
         id="path42" />
      <path
         d="m 6738.41,3113.85 c -0.04,0.01 -0.11,0.02 -0.15,0.03 l 219.52,154.76 v -0.15 l -219.37,-154.64 m 256.18,180.59 v 0.15 l 104.05,73.35 c 22.98,16.05 37.19,42.36 38.32,70.25 -1.12,-28.04 -15.27,-54.16 -38.31,-70.4 l -104.06,-73.35 m 210.87,9.02 c 32.98,37.95 51.78,87 51.78,138.34 v 700.65 0 -700.65 c 0,-51.34 -18.79,-100.39 -51.78,-138.34"
         style="fill:#929292;fill-opacity:1;fill-rule:nonzero;stroke:none"
         id="path44" />
      <path
         d="m 6957.78,3268.49 v 0.15 l 36.81,25.95 v -0.15 l -36.81,-25.95"
         style="fill:#1c2e50;fill-opacity:1;fill-rule:nonzero;stroke:none"
         id="path46" />
      <path
         d="m 6904.98,3084.2 c -55.42,10.39 -110.97,20.27 -166.57,29.65 l 219.37,154.64 36.81,25.95 104.06,73.35 c 23.04,16.24 37.19,42.36 38.31,70.4 0.05,1.19 0.07,2.38 0.07,3.58 v 732.17 c 40.15,-10.15 80.22,-20.65 120.21,-31.49 V 3441.8 c 0,-51.34 -18.8,-100.39 -51.78,-138.34 -10.99,-12.65 -23.57,-24.06 -37.55,-33.92 L 6904.98,3084.2"
         style="fill:#4d738a;fill-opacity:1;fill-rule:nonzero;stroke:none"
         id="path48" />
      <path
         d="m 7081.1,3049.37 c -58.6,12.2 -117.27,23.8 -176.12,34.83 l 262.93,185.34 c 13.98,9.86 26.56,21.27 37.55,33.92 32.99,37.95 51.78,87 51.78,138.34 v 700.65 c 43.38,-11.78 86.66,-23.96 129.82,-36.57 0.03,-0.01 0.06,-0.02 0.09,-0.03 V 3441.8 c 0,-102 -45.89,-198.44 -123.88,-262.82 -6.61,-5.45 -13.44,-10.66 -20.5,-15.64 L 7081.1,3049.37"
         style="fill:#999999;fill-opacity:1;fill-rule:nonzero;stroke:none"
         id="path50" />
      <path
         d="m 3263.72,3112.48 -221.5,156.16 -36.81,25.95 -104.05,73.35 c -3.68,2.53 -7.13,5.32 -10.32,8.32 -17.92,16.81 -28.07,40.45 -28.07,65.51 v 0 726.58 c 703.63,178.36 1427.16,255.15 2137.03,255.15 704.69,0 1432.95,-71.56 2137.03,-249.56 v -732.17 c 0,-1.2 -0.02,-2.39 -0.07,-3.58 -1.13,-27.89 -15.34,-54.2 -38.32,-70.25 l -104.05,-73.35 -36.81,-25.95 -219.52,-154.76 c -579.08,97.66 -1166.43,140.86 -1738.26,140.86 -575.42,0 -1159.51,-44.31 -1736.28,-142.26"
         style="fill:#4d738a;fill-opacity:1;fill-rule:nonzero;stroke:none"
         id="path52" />
      <path
         d="M 7936.42,4181.76 V 3087.64 c -945.41,304.18 -1963.16,429.67 -2936.28,429.67 -981.73,0 -1988.06,-128.74 -2941.8,-432.92 v 1093.48 c 947.27,360.92 1957.92,508.15 2941.8,508.15 975.89,0 1997.01,-137.18 2936.28,-504.26"
         style="fill:#2f4c86;fill-opacity:1;fill-rule:nonzero;stroke:none"
         id="path54" />
      <path
         d="m 1738.28,2975.12 c -7.39,-5.19 -14.47,-10.06 -21.85,-15.57 0.62,3.24 0.62,4.86 1.24,8.11 6.76,2.27 13.83,5.18 20.61,7.46"
         style="fill:#2f4c86;fill-opacity:1;fill-rule:nonzero;stroke:none"
         id="path56" />
      <path
         d="m 8283.56,2959.55 c -7.39,5.51 -14.47,10.38 -21.85,15.57 6.77,-2.28 13.85,-5.19 20.62,-7.46 0.61,-3.25 0.92,-4.87 1.23,-8.11"
         style="fill:#2f4c86;fill-opacity:1;fill-rule:nonzero;stroke:none"
         id="path58" />
      <path
         d="m 5000,7722.11 105.45,-239.17 259.85,28.26 -154.39,-210.91 154.39,-210.91 -259.85,28.26 -105.45,-239.16 -105.45,239.16 -259.85,-28.26 154.39,210.91 -154.39,210.91 259.85,-28.26 105.45,239.17"
         style="fill:#ffffff;fill-opacity:1;fill-rule:nonzero;stroke:none"
         id="path60" />
    </g>
  </g>
</svg>
