<?xml version="1.0" encoding="UTF-8" standalone="no"?>
<!-- Created with Inkscape (http://www.inkscape.org/) -->

<svg
   version="1.1"
   id="svg2"
   width="1333.3333"
   height="1333.3333"
   viewBox="0 0 1333.3333 1333.3333"
   sodipodi:docname="66918.eps"
   xmlns:inkscape="http://www.inkscape.org/namespaces/inkscape"
   xmlns:sodipodi="http://sodipodi.sourceforge.net/DTD/sodipodi-0.dtd"
   xmlns="http://www.w3.org/2000/svg"
   xmlns:svg="http://www.w3.org/2000/svg">
  <defs
     id="defs6" />
  <sodipodi:namedview
     id="namedview4"
     pagecolor="#ffffff"
     bordercolor="#000000"
     borderopacity="0.25"
     inkscape:showpageshadow="2"
     inkscape:pageopacity="0.0"
     inkscape:pagecheckerboard="0"
     inkscape:deskcolor="#d1d1d1" />
  <g
     id="g8"
     inkscape:groupmode="layer"
     inkscape:label="ink_ext_XXXXXX"
     transform="matrix(1.3333333,0,0,-1.3333333,0,1333.3333)">
    <g
       id="g10"
       transform="scale(0.1)">
      <path
         d="M 8980,7585.55 7517.34,7271.19 v -20.12 l 752.68,-116.59 V 5918.42 L 8980,6063.69 8707.58,6671.93 8980,7585.55"
         style="fill:#81bfe6;fill-opacity:1;fill-rule:nonzero;stroke:none"
         id="path14" />
      <path
         d="m 7540.27,6962.6 -22.93,0.4 v 300.62 l 22.93,-3.88 V 6962.6"
         style="fill:#81bfe6;fill-opacity:1;fill-rule:nonzero;stroke:none"
         id="path16" />
      <path
         d="m 2455.62,2264.48 v -334.53 l -731.71,176.16 V 3252.37 L 1020,3105.75 1316.46,2353.15 1020,1586.36 2482.66,1896.91 v 373.42 l -27.04,-5.85"
         style="fill:#81bfe6;fill-opacity:1;fill-rule:nonzero;stroke:none"
         id="path18" />
      <path
         d="m 7377.52,5396.59 v -925.56 c 0,-846.46 -455.54,-1635.72 -1188.77,-2058.74 -360.75,-208.38 -772.03,-318.84 -1188.79,-318.84 -416.77,0 -828.05,110.46 -1188.79,318.84 -707.4,408.53 -1156.28,1157.45 -1187.22,1969.82 l 4753.57,1014.48"
         style="fill:#5474a5;fill-opacity:1;fill-rule:nonzero;stroke:none"
         id="path20" />
      <path
         d="M 7493.07,4471.03 C 7493.07,3963 7336.8,3474.55 7058.69,3066.81 6851.1,2761.67 6575.35,2501.59 6246.72,2311.62 5867.95,2093.45 5437.09,1977.9 4999.96,1977.9 c -437.14,0 -868,115.55 -1246.76,334.11 -20.75,11.75 -41.13,23.9 -61.11,36.43 -491.18,302.38 -855.83,764.2 -1043.07,1296.11 -55.24,155.5 -95.19,317.27 -117.89,482.56 -16.07,113.2 -24.29,227.97 -24.29,343.92 v 2743.8 l 2184.07,755.57 c 199.36,68.94 418.71,68.94 618.09,0 l 2184.07,-755.57 v -2743.8 m -2041.5,3911.04 c -146.48,50.92 -298.86,75.99 -451.61,75.99 -152.38,0 -305.13,-25.07 -451.24,-75.99 L 2070.89,7525.04 V 4471.03 c 0,-146.89 10.96,-292.6 32.49,-435.18 24.7,-165.29 63.47,-326.67 115.16,-483.35 170.39,-514.69 481.01,-975.31 900.51,-1326.27 128.87,-108.5 267.91,-206.03 416.37,-291.81 226.79,-130.83 466.5,-228.75 712.48,-294.56 246.38,-65.02 499.03,-97.92 752.06,-97.92 505.67,0 1011.34,130.83 1464.54,392.48 453.18,261.66 819.42,634.15 1072.06,1072.06 34.48,59.94 66.98,121.04 97.53,183.32 191.13,392.87 294.93,829.59 294.93,1281.23 v 3054.01 l -2477.45,857.03"
         style="fill:#2f4c86;fill-opacity:1;fill-rule:nonzero;stroke:none"
         id="path22" />
      <path
         d="M 7377.52,7132.18 V 5396.59 L 2623.95,4382.11 c -1.17,29.38 -1.57,59.14 -1.57,88.92 v 2661.15 l 2106.53,728.94 c 174.69,60.32 367.4,60.32 542.1,0 l 2106.51,-728.94"
         style="fill:#2f4c86;fill-opacity:1;fill-rule:nonzero;stroke:none"
         id="path24" />
      <path
         d="m 7377.46,4471.05 c 0,-846.64 -455.49,-1635.59 -1188.72,-2058.94 -360.94,-208.4 -771.99,-318.54 -1188.73,-318.54 -416.79,0 -827.9,110.17 -1188.86,318.62 C 3078,2835.52 2622.54,3624.41 2622.54,4471.03 v 2661.23 l 2106.41,728.82 c 174.72,60.44 367.32,60.44 542.1,0 L 7377.46,7132.26 V 4471.05 M 4691.07,7970.48 2506.75,7214.75 V 4471.03 c 0,-887.84 477.63,-1715.18 1246.5,-2159.13 378.52,-218.58 809.65,-334.12 1246.76,-334.12 437.04,0 868.1,115.51 1246.62,334.03 768.94,443.99 1246.62,1271.38 1246.62,2159.24 v 2743.7 l -2184.31,755.73 c -199.21,68.95 -418.72,68.9 -617.87,0"
         style="fill:#ffffff;fill-opacity:1;fill-rule:nonzero;stroke:none"
         id="path26" />
      <path
         d="m 2644.3,4151.27 c -10.42,76.21 -17.16,153.28 -20.09,230.9 l 4753.31,1014.42 -0.06,-235.02 -4733.16,-1010.3"
         style="fill:#324663;fill-opacity:1;fill-rule:nonzero;stroke:none"
         id="path28" />
      <path
         d="m 2103.38,4035.85 v 0 c -21.53,142.58 -32.49,288.29 -32.49,435.18 v 1076.36 c 2.74,0.78 5.47,1.18 8.23,1.96 l 427.63,91.64 V 4471.03 c 0,-115.91 8.15,-230.87 24.02,-344 l -427.39,-91.18 m 5389.87,1150.44 v 1522.12 l 435.77,93.57 V 5279.86 c -2.73,-1.17 -5.47,-1.56 -8.6,-2.35 l -427.17,-91.22"
         style="fill:#1c2e50;fill-opacity:1;fill-rule:nonzero;stroke:none"
         id="path30" />
      <path
         d="m 2624.21,4382.17 c -1.11,29.55 -1.67,59.14 -1.67,88.86 V 5665.77 L 7377.46,6683.62 V 5396.58 L 2624.21,4382.17"
         style="fill:#1c2e50;fill-opacity:1;fill-rule:nonzero;stroke:none"
         id="path32" />
      <path
         d="m 2530.77,4127.03 c -15.87,113.13 -24.02,228.09 -24.02,344 v 1169.96 l 0.09,0.02 115.7,24.76 V 4471.03 c 0,-29.72 0.56,-59.31 1.67,-88.86 2.93,-77.62 9.67,-154.69 20.09,-230.9 l -113.17,-24.16 -0.36,-0.08 m 4846.69,1034.54 v 235.01 1287.04 l 115.61,24.75 0.18,0.04 V 5186.29 l -0.18,-0.04 -115.61,-24.68"
         style="fill:#999999;fill-opacity:1;fill-rule:nonzero;stroke:none"
         id="path34" />
      <path
         d="m 3638.17,2382.6 c -276.49,180.23 -510.65,411.85 -692.93,678.05 182.4,-266.06 416.67,-497.74 692.93,-678.05 m 222.46,1.8 c -16.6,9.06 -33.09,18.32 -49.48,27.79 -480.06,277.19 -841.07,711.16 -1033.11,1215.39 192.15,-504.12 553.14,-938.09 1033.13,-1215.29 16.42,-9.49 32.96,-18.78 49.59,-27.86 l -0.13,-0.03"
         style="fill:#929292;fill-opacity:1;fill-rule:nonzero;stroke:none"
         id="path36" />
      <path
         d="m 3860.76,2384.43 c -16.63,9.08 -33.17,18.37 -49.59,27.86 -479.99,277.2 -840.98,711.17 -1033.13,1215.29 -5.22,13.72 -10.32,27.49 -15.3,41.32 l 4614.72,988.09 v -185.94 c 0,-527.19 -176.61,-1032.01 -486.91,-1440.12 l -3029.79,-646.5"
         style="fill:#324663;fill-opacity:1;fill-rule:nonzero;stroke:none"
         id="path38" />
      <path
         d="m 3119.05,2226.23 v 0 c -419.5,350.96 -730.12,811.58 -900.51,1326.27 l 430.03,91.95 c 73.02,-206.93 172.91,-403.29 296.67,-583.8 182.28,-266.2 416.44,-497.82 692.93,-678.05 17.81,-11.62 35.71,-22.98 53.87,-34.17 l -572.99,-122.2 m 3939.94,840.64 c 277.88,407.94 434.26,896.15 434.26,1404.18 v 210.74 l 435.77,93.57 v -304.33 c 0,-451.64 -103.8,-888.36 -294.93,-1281.23 v 0 l -575.1,-122.93"
         style="fill:#1c2e50;fill-opacity:1;fill-rule:nonzero;stroke:none"
         id="path40" />
      <path
         d="m 3692.04,2348.43 c -18.16,11.19 -36.06,22.55 -53.87,34.17 -276.26,180.31 -510.53,411.99 -692.93,678.05 -123.76,180.51 -223.65,376.87 -296.67,583.8 l 0.45,0.1 113.72,24.35 c 4.98,-13.83 10.08,-27.6 15.3,-41.32 192.04,-504.23 553.05,-938.2 1033.11,-1215.39 16.39,-9.47 32.88,-18.73 49.48,-27.79 l -168.54,-35.96 -0.05,-0.01 m 3198.51,682.5 c 310.3,408.11 486.91,912.93 486.91,1440.12 v 185.94 l 115.61,24.76 0.18,0.04 v -210.74 c 0,-508.03 -156.38,-996.24 -434.26,-1404.18 l -0.3,-0.06 -168.14,-35.88"
         style="fill:#999999;fill-opacity:1;fill-rule:nonzero;stroke:none"
         id="path42" />
      <path
         d="M 8242.58,7104.15 V 5910.52 c 0,-192.03 -134.23,-357.93 -322.03,-398.01 L 1757.43,4197.06 v 1189.43 c 0,191.93 134.08,357.77 321.76,397.95 l 6163.39,1319.71"
         style="fill:#81bfe6;fill-opacity:1;fill-rule:nonzero;stroke:none"
         id="path44" />
      <path
         d="M 8242.58,5077.53 V 3883.91 c 0,-192.04 -134.23,-357.93 -322.03,-398.01 L 1757.43,2170.46 v 1189.42 c 0,191.93 134.08,357.77 321.76,397.95 l 6163.39,1319.7"
         style="fill:#81bfe6;fill-opacity:1;fill-rule:nonzero;stroke:none"
         id="path46" />
      <path
         d="m 4461.01,7222.27 c 0,-64.9 -52.61,-117.51 -117.51,-117.51 -64.9,0 -117.5,52.61 -117.5,117.51 0,64.89 52.6,117.51 117.5,117.51 64.9,0 117.51,-52.62 117.51,-117.51"
         style="fill:#ffffff;fill-opacity:1;fill-rule:nonzero;stroke:none"
         id="path48" />
      <path
         d="m 5792.76,7222.27 c 0,-64.9 -52.6,-117.51 -117.51,-117.51 -64.89,0 -117.51,52.61 -117.51,117.51 0,64.89 52.62,117.51 117.51,117.51 64.91,0 117.51,-52.62 117.51,-117.51"
         style="fill:#ffffff;fill-opacity:1;fill-rule:nonzero;stroke:none"
         id="path50" />
      <path
         d="m 5126.88,7418.12 c 0,-64.91 -52.6,-117.51 -117.5,-117.51 -64.9,0 -117.51,52.6 -117.51,117.51 0,64.89 52.61,117.5 117.51,117.5 64.9,0 117.5,-52.61 117.5,-117.5"
         style="fill:#ffffff;fill-opacity:1;fill-rule:nonzero;stroke:none"
         id="path52" />
    </g>
  </g>
</svg>
